<?xml version="1.0" encoding="UTF-8"?>
<svg id="_레이어_1" data-name="레이어 1" xmlns="http://www.w3.org/2000/svg" viewBox="0 0 494.48 118.29">
  <path d="M70.55,20.76c-2.1,0-8.14-.2-15.77-3.07C38.73,11.64,36.97.91,30,.43,17.26-.44-5.18,30.81,1.08,60.68c3.64,17.38,16.11,39.86,35.39,42.29,6.82.86,16.14-.44,17.61-4.61,2.58-7.28-22.15-13.63-31.14-35.14-7.37-17.61-1.12-38.04,4.07-38.85,2.02-.32,2.98,2.47,9.95,7.04,4.89,3.21,9.09,4.91,11.75,5.98,4.96,1.98,12.5,4.99,22.53,4.82,7.95-.13,13.95-2.2,17.84-3.57,2-.71,7.15-2.64,13.24-6.38,9.2-5.64,10.2-9.06,12.97-8.68,5.77.8,11.79,17.06,8.41,32.51-5.19,23.74-30.36,33.99-26.45,40.34,2.48,4.03,13.78,3.49,21.71.24,20.16-8.26,22.18-35.48,22.6-41.13C143.55,28.8,128.72.09,115.8,0c-7.74-.05-9.79,10.19-28.9,17.47-5.91,2.25-11,3.28-16.34,3.28Z" style="fill: #040000;"/>
  <text transform="translate(141.74 88.36) scale(1.06 1)" style="fill: #231815; font-family: BMDoHyeon-OTF-KSCpc-EUC-H, &apos;BM Dohyeon&apos;; font-size: 81.34px;"><tspan x="0" y="0">OGAZOA</tspan></text>
</svg>