<svg width="34" height="34" viewBox="0 0 34 34" fill="none" xmlns="http://www.w3.org/2000/svg">
<path d="M7.24642 29.0412C6.54217 29.0412 5.9393 28.7905 5.4378 28.2889C4.9363 27.7874 4.68555 27.1846 4.68555 26.4803V7.51888C4.68555 6.81463 4.9363 6.21176 5.4378 5.71026C5.9393 5.20873 6.54217 4.95797 7.24642 4.95797H18.498C18.7991 4.95797 19.0514 5.05984 19.255 5.26358C19.4587 5.46732 19.5605 5.71977 19.5605 6.02093C19.5605 6.32211 19.4587 6.57441 19.255 6.77782C19.0514 6.98123 18.7991 7.08293 18.498 7.08293H7.24642C7.11927 7.08293 7.01483 7.1238 6.93309 7.20555C6.85135 7.28729 6.81048 7.39173 6.81048 7.51888V26.4803C6.81048 26.6075 6.85135 26.7119 6.93309 26.7937C7.01483 26.8754 7.11927 26.9163 7.24642 26.9163H26.2079C26.335 26.9163 26.4395 26.8754 26.5212 26.7937C26.6029 26.7119 26.6438 26.6075 26.6438 26.4803V15.2287C26.6438 14.9277 26.7457 14.6754 26.9494 14.4717C27.1531 14.2681 27.4056 14.1663 27.7068 14.1663C28.0079 14.1663 28.2602 14.2681 28.4636 14.4717C28.6671 14.6754 28.7688 14.9277 28.7688 15.2287V26.4803C28.7688 27.1846 28.518 27.7874 28.0165 28.2889C27.515 28.7905 26.9121 29.0412 26.2079 29.0412H7.24642ZM24.3554 9.37135H22.5845C22.2835 9.37135 22.0312 9.26949 21.8275 9.06577C21.6239 8.86203 21.5221 8.60958 21.5221 8.30842C21.5221 8.00724 21.6239 7.75494 21.8275 7.55153C22.0312 7.34812 22.2835 7.24642 22.5845 7.24642H24.3554V5.47555C24.3554 5.17451 24.4573 4.92216 24.661 4.71852C24.8647 4.5149 25.1172 4.41309 25.4184 4.41309C25.7195 4.41309 25.9718 4.5149 26.1752 4.71852C26.3786 4.92216 26.4803 5.17451 26.4803 5.47555V7.24642H28.2512C28.5522 7.24642 28.8046 7.34828 29.0082 7.55199C29.2119 7.75573 29.3137 8.00818 29.3137 8.30934C29.3137 8.61053 29.2119 8.86282 29.0082 9.06623C28.8046 9.26964 28.5522 9.37135 28.2512 9.37135H26.4803V11.1422C26.4803 11.4433 26.3785 11.6956 26.1748 11.8992C25.971 12.1029 25.7186 12.2047 25.4174 12.2047C25.1162 12.2047 24.8639 12.1029 24.6605 11.8992C24.4571 11.6956 24.3554 11.4433 24.3554 11.1422V9.37135ZM15.6374 22.6935L13.3163 19.7185C13.1837 19.5569 13.0152 19.4761 12.8109 19.4761C12.6066 19.4761 12.4381 19.5614 12.3055 19.7322L10.0716 22.7044C9.90088 22.9223 9.8784 23.1475 10.0042 23.38C10.13 23.6125 10.3186 23.7287 10.5702 23.7287H22.9931C23.2447 23.7287 23.4333 23.6125 23.5591 23.38C23.6849 23.1475 23.6669 22.9223 23.5053 22.7044L20.1271 18.1793C19.9945 18.0086 19.8238 17.9232 19.6149 17.9232C19.4061 17.9232 19.235 18.0097 19.1018 18.1828L15.6374 22.6935Z" fill="#6E6E82"/>
</svg>
