<svg width="24" height="25" viewBox="0 0 24 25" fill="none" xmlns="http://www.w3.org/2000/svg">
<g id="icon">
<path id="Vector" d="M12 18.3206L6.94295 21.3582C6.75464 21.4678 6.56592 21.5138 6.37678 21.4964C6.18763 21.479 6.01639 21.4155 5.86307 21.3059C5.70977 21.1964 5.59146 21.0532 5.50813 20.8764C5.42479 20.6997 5.41145 20.5042 5.46813 20.2901L6.81049 14.5709L2.3459 10.7215C2.17925 10.5771 2.07302 10.4099 2.0272 10.2198C1.98138 10.0298 1.99345 9.84509 2.06343 9.66583C2.13343 9.48656 2.23426 9.34007 2.36592 9.22637C2.49757 9.11267 2.67755 9.03839 2.90586 9.00354L8.79782 8.49063L11.0851 3.09008C11.1684 2.88924 11.2947 2.74068 11.4638 2.6444C11.633 2.54813 11.8117 2.5 12 2.5C12.1883 2.5 12.367 2.54813 12.5362 2.6444C12.7053 2.74068 12.8316 2.88924 12.9149 3.09008L15.2022 8.49063L21.0941 9.00354C21.3224 9.03839 21.5024 9.11267 21.6341 9.22637C21.7657 9.34007 21.8666 9.48656 21.9366 9.66583C22.0065 9.84509 22.0186 10.0298 21.9728 10.2198C21.927 10.4099 21.8207 10.5771 21.6541 10.7215L17.1895 14.5709L18.5319 20.2901C18.5885 20.5042 18.5752 20.6997 18.4919 20.8764C18.4085 21.0532 18.2902 21.1964 18.1369 21.3059C17.9836 21.4155 17.8124 21.479 17.6232 21.4964C17.4341 21.5138 17.2454 21.4678 17.057 21.3582L12 18.3206Z" fill="#FFC83C"/>
</g>
</svg>
