<?xml version="1.0" encoding="UTF-8"?>
<svg id="_레이어_1" data-name="레이어 1" xmlns="http://www.w3.org/2000/svg" viewBox="0 0 550.54 415.64">
  <defs>
    <style>
      .cls-1 {
fill: currentColor;
      }
    </style>
  </defs>
  <path class="cls-1" d="M209.84,163.66c-6.26.02-24.24-.55-46.97-9.28-47.82-18.35-53.14-51.09-73.87-52.51C51.06,99.27-15.55,194.84,3.29,286.02c10.96,53.04,48.22,121.61,105.63,128.89,20.32,2.57,48.04-1.46,52.4-14.19,7.63-22.24-66.02-41.47-92.95-107.11-22.05-53.73-3.59-116.13,11.86-118.65,6-.98,8.9,7.52,29.66,21.45,14.57,9.78,27.09,14.95,35.03,18.17,14.77,6,37.26,15.15,67.11,14.58,23.65-.45,41.51-6.8,53.07-11.02,5.94-2.17,21.27-8.11,39.38-19.57,27.34-17.29,30.32-27.73,38.56-26.58,17.17,2.4,35.21,52.03,25.27,99.21-15.29,72.52-90.17,103.98-78.47,123.34,7.42,12.28,41.03,10.57,64.64.58,59.97-25.36,65.79-108.47,67-125.72,5.72-81.65-38.59-169.21-77.07-169.4-19.71-.09-26.98,22.78-64.24,43.39-6.3,3.49-13.46,6.91-21.69,10.14-17.57,6.91-32.72,10.08-48.64,10.13Z"/>
  <path class="cls-1" d="M435.8,246.76c10.22-9.11,23.29-21.79,37.05-38.23,16.21-19.36,102.03-121.87,70.96-175.3-18.49-31.81-75.6-44.39-110.15-21.62-25.57,16.85-42.9,55.79-32.28,70.94,4.33,6.17,13.91,9.28,21.92,7.19,19.97-5.2,17.19-39.34,37.32-48.49,14.83-6.74,37.58,2.14,45.5,15.28,22.52,37.37-62.62,129.46-71.93,139.62-1.9,2.07-3.48,3.75-4.49,4.81"/>
</svg>